<svg xmlns="http://www.w3.org/2000/svg" xmlns:svg="http://www.w3.org/2000/svg" id="svg8" width="512" height="512" version="1.1" viewBox="0 0 135.467 135.467"><defs id="defs2"><rect id="rect1121" width="33.862" height="51.982" x="100.359" y="188.856"/></defs><metadata id="metadata5"/><g id="layer1" transform="translate(-365.08591,-267.51413)"><path style="color:#000;font-style:normal;font-variant:normal;font-weight:400;font-stretch:normal;font-size:medium;line-height:normal;font-family:sans-serif;font-variant-ligatures:normal;font-variant-position:normal;font-variant-caps:normal;font-variant-numeric:normal;font-variant-alternates:normal;font-variant-east-asian:normal;font-feature-settings:normal;font-variation-settings:normal;text-indent:0;text-align:start;text-decoration:none;text-decoration-line:none;text-decoration-style:solid;text-decoration-color:#000;letter-spacing:normal;word-spacing:normal;text-transform:none;writing-mode:lr-tb;direction:ltr;text-orientation:mixed;dominant-baseline:auto;baseline-shift:baseline;text-anchor:start;white-space:normal;shape-padding:0;shape-margin:0;inline-size:0;clip-rule:nonzero;display:inline;overflow:visible;visibility:visible;opacity:1;isolation:auto;mix-blend-mode:normal;color-interpolation:sRGB;color-interpolation-filters:linearRGB;solid-color:#000;solid-opacity:1;vector-effect:none;fill:#bebebe;fill-opacity:1;fill-rule:nonzero;stroke:none;stroke-width:4.49153;stroke-linecap:butt;stroke-linejoin:miter;stroke-miterlimit:4;stroke-dasharray:none;stroke-dashoffset:0;stroke-opacity:1;color-rendering:auto;image-rendering:auto;shape-rendering:auto;text-rendering:auto;enable-background:accumulate;stop-color:#000;stop-opacity:1" id="rect835" d="m 458.16552,312.01549 -44.50104,-44.50136 -44.50136,44.50136 h 26.66699 v 59.4364 h 35.6684 v -59.4364 z"/><path id="rect942" d="M 369.16325,381.77769 H 458.1654 V 402.9808 H 369.16325 Z" style="opacity:1;fill:#bebebe;fill-opacity:1;stroke:none;stroke-width:12.7294;stroke-linecap:round;stroke-miterlimit:4;stroke-dasharray:none;stroke-opacity:1"/><path id="path2077" d="M 322.41602 203.32422 C 315.15845 203.328 308.18564 206.2263 303.05273 211.35742 C 292.44746 221.95953 292.44252 239.52213 303.04492 250.12695 L 357.06641 304.1543 L 303.04492 358.16797 C 292.44127 368.7686 292.43928 386.33226 303.03711 396.9375 C 313.63929 407.54267 331.20189 407.54772 341.80664 396.94531 L 395.83594 342.93164 L 449.85547 396.95312 L 449.85547 396.95898 C 460.45844 407.55958 478.02203 407.55958 488.625 396.95898 L 488.625 396.95312 C 499.22695 386.35151 499.23189 368.79375 488.63281 358.18945 L 488.625 358.18945 L 434.61328 304.16211 L 488.63281 250.14062 C 499.23802 239.53845 499.24307 221.97588 488.64062 211.37109 C 483.49865 206.22814 476.51472 203.3358 469.24219 203.33984 C 461.9819 203.34332 455.00573 206.23034 449.87109 211.36328 L 395.84375 265.38477 L 341.82227 211.35742 C 336.68113 206.21806 329.69303 203.3207 322.42383 203.32422 L 322.41602 203.32422 z" transform="matrix(0.26458333,0,0,0.26458333,365.08591,267.51413)" style="color:#000;font-style:normal;font-variant:normal;font-weight:400;font-stretch:normal;font-size:medium;line-height:normal;font-family:sans-serif;font-variant-ligatures:normal;font-variant-position:normal;font-variant-caps:normal;font-variant-numeric:normal;font-variant-alternates:normal;font-variant-east-asian:normal;font-feature-settings:normal;font-variation-settings:normal;text-indent:0;text-align:start;text-decoration:none;text-decoration-line:none;text-decoration-style:solid;text-decoration-color:#000;letter-spacing:normal;word-spacing:normal;text-transform:none;writing-mode:lr-tb;direction:ltr;text-orientation:mixed;dominant-baseline:auto;baseline-shift:baseline;text-anchor:start;white-space:normal;shape-padding:0;shape-margin:0;inline-size:0;clip-rule:nonzero;display:inline;overflow:visible;visibility:visible;isolation:auto;mix-blend-mode:normal;color-interpolation:sRGB;color-interpolation-filters:linearRGB;solid-color:#000;solid-opacity:1;vector-effect:none;fill:#bebebe;fill-opacity:1;fill-rule:nonzero;stroke:none;stroke-width:24.6227;stroke-linecap:round;stroke-linejoin:miter;stroke-miterlimit:4;stroke-dasharray:none;stroke-dashoffset:0;stroke-opacity:1;color-rendering:auto;image-rendering:auto;shape-rendering:auto;text-rendering:auto;enable-background:accumulate;stop-color:#000"/></g></svg>