<svg xmlns="http://www.w3.org/2000/svg" xmlns:svg="http://www.w3.org/2000/svg" id="svg8" width="512" height="512" version="1.1" viewBox="0 0 135.467 135.467"><metadata id="metadata5"/><g id="layer1" transform="translate(-147.93097,-157.24948)"><path id="rect1298" d="m 211.65353,157.24948 c -20.56152,1.95637 -36.52782,18.80263 -36.52782,39.42821 v 30.79757 h 36.52782 v -14.2197 c -5.32346,-1.62493 -9.16675,-6.4667 -9.16675,-12.21856 v -14.51078 c 0,-5.75184 3.84329,-10.59304 9.16675,-12.21797 z m 8.02096,0 v 17.05818 c 5.32382,1.62473 9.16674,6.46646 9.16674,12.21856 V 201.037 c 0,5.75212 -3.84292,10.59442 -9.16674,12.21914 v 14.21912 h 36.5284 v -30.79757 c 0,-20.62558 -15.96682,-37.47184 -36.5284,-39.42821 z m -44.54878,78.06477 v 17.78329 c 0,21.94878 18.08002,39.61861 40.5383,39.61861 22.45828,0 40.53888,-17.66983 40.53888,-39.61861 v -17.78329 z" style="fill:#bebebe;stroke:none;stroke-width:2.22787;stroke-miterlimit:4;stroke-dasharray:none;stroke-opacity:1;fill-opacity:1"/></g></svg>