<svg xmlns="http://www.w3.org/2000/svg" xmlns:svg="http://www.w3.org/2000/svg" id="svg8" width="512" height="512" version="1.1" viewBox="0 0 135.467 135.467"><metadata id="metadata5"/><g id="layer1" transform="translate(-181.03171,-192.50998)"><path id="path1422" d="M 53.9375 12.357422 A 41.574803 41.574803 0 0 0 24.564453 24.529297 A 41.574803 41.574803 0 0 0 24.558594 83.326172 L 197.20312 255.99609 L 24.535156 428.63672 A 41.574803 41.574803 0 0 0 24.527344 487.43359 A 41.574803 41.574803 0 0 0 83.324219 487.43945 L 255.99609 314.79688 L 428.64258 487.46875 A 41.574803 41.574803 0 0 0 487.43164 487.46875 A 41.574803 41.574803 0 0 0 487.43945 428.67969 L 314.79688 256.00586 L 487.46875 83.363281 A 41.574803 41.574803 0 0 0 487.47656 24.566406 A 41.574803 41.574803 0 0 0 458.05273 12.386719 A 41.574803 41.574803 0 0 0 428.67969 24.558594 L 256.00586 197.20508 L 83.361328 24.529297 A 41.574803 41.574803 0 0 0 53.9375 12.357422 z" transform="matrix(0.26458333,0,0,0.26458333,181.03171,192.50998)" style="color:#000;font-style:normal;font-variant:normal;font-weight:400;font-stretch:normal;font-size:medium;line-height:normal;font-family:sans-serif;font-variant-ligatures:normal;font-variant-position:normal;font-variant-caps:normal;font-variant-numeric:normal;font-variant-alternates:normal;font-variant-east-asian:normal;font-feature-settings:normal;font-variation-settings:normal;text-indent:0;text-align:start;text-decoration:none;text-decoration-line:none;text-decoration-style:solid;text-decoration-color:#000;letter-spacing:normal;word-spacing:normal;text-transform:none;writing-mode:lr-tb;direction:ltr;text-orientation:mixed;dominant-baseline:auto;baseline-shift:baseline;text-anchor:start;white-space:normal;shape-padding:0;shape-margin:0;inline-size:0;clip-rule:nonzero;display:inline;overflow:visible;visibility:visible;opacity:1;isolation:auto;mix-blend-mode:normal;color-interpolation:sRGB;color-interpolation-filters:linearRGB;solid-color:#000;solid-opacity:1;vector-effect:none;fill:#bebebe;fill-opacity:1;fill-rule:nonzero;stroke:none;stroke-width:3.77953;stroke-linecap:round;stroke-linejoin:miter;stroke-miterlimit:4;stroke-dasharray:none;stroke-dashoffset:0;stroke-opacity:1;color-rendering:auto;image-rendering:auto;shape-rendering:auto;text-rendering:auto;enable-background:accumulate;stop-color:#000;stop-opacity:1"/></g></svg>