<svg xmlns="http://www.w3.org/2000/svg" xmlns:svg="http://www.w3.org/2000/svg" id="svg8" width="512" height="512" version="1.1" viewBox="0 0 135.467 135.467"><defs id="defs2"><rect id="rect1121" width="33.862" height="51.982" x="100.359" y="188.856"/></defs><metadata id="metadata5"/><g id="layer1" transform="translate(-58.940441,-176.75107)"><path id="path1422-2" d="m 100.4113,196.75543 a 7.9508362,9.8410583 0 0 0 -7.951081,9.8403 7.9508362,9.8410583 0 0 0 7.951081,9.84136 l 86.04219,0.0115 a 7.9508362,9.8410583 0 0 0 7.95362,-9.8403 7.9508362,9.8410583 0 0 0 -7.95023,-9.84136 z m 0,37.88239 a 7.9508362,9.8410583 0 0 0 -7.951081,9.84031 7.9508362,9.8410583 0 0 0 7.951081,9.84135 l 86.04219,0.0115 a 7.9508362,9.8410583 0 0 0 7.95362,-9.84031 7.9508362,9.8410583 0 0 0 -7.95023,-9.84136 z m 0,37.8824 a 7.9508362,9.8410583 0 0 0 -7.951081,9.84031 7.9508362,9.8410583 0 0 0 7.951081,9.84135 l 86.04219,0.0115 a 7.9508362,9.8410583 0 0 0 7.95362,-9.84031 7.9508362,9.8410583 0 0 0 -7.95023,-9.84135 z" style="color:#000;font-style:normal;font-variant:normal;font-weight:400;font-stretch:normal;font-size:medium;line-height:normal;font-family:sans-serif;font-variant-ligatures:normal;font-variant-position:normal;font-variant-caps:normal;font-variant-numeric:normal;font-variant-alternates:normal;font-variant-east-asian:normal;font-feature-settings:normal;font-variation-settings:normal;text-indent:0;text-align:start;text-decoration:none;text-decoration-line:none;text-decoration-style:solid;text-decoration-color:#000;letter-spacing:normal;word-spacing:normal;text-transform:none;writing-mode:lr-tb;direction:ltr;text-orientation:mixed;dominant-baseline:auto;baseline-shift:baseline;text-anchor:start;white-space:normal;shape-padding:0;shape-margin:0;inline-size:0;clip-rule:nonzero;display:inline;overflow:visible;visibility:visible;opacity:1;isolation:auto;mix-blend-mode:normal;color-interpolation:sRGB;color-interpolation-filters:linearRGB;solid-color:#000;solid-opacity:1;vector-effect:none;fill:#bebebe;fill-opacity:1;fill-rule:nonzero;stroke:none;stroke-width:1.82687;stroke-linecap:round;stroke-linejoin:miter;stroke-miterlimit:4;stroke-dasharray:none;stroke-dashoffset:0;stroke-opacity:1;color-rendering:auto;image-rendering:auto;shape-rendering:auto;text-rendering:auto;enable-background:accumulate;stop-color:#000;stop-opacity:1"/><ellipse style="opacity:1;fill:#bebebe;stroke-width:.112192;stroke-linecap:round;fill-opacity:1" id="path836" cx="69.433" cy="244.484" rx="10.19" ry="9.818"/><ellipse style="fill:#bebebe;stroke-width:.112192;stroke-linecap:round;fill-opacity:1" id="path836-1" cx="69.433" cy="206.61" rx="10.19" ry="9.818"/><ellipse style="fill:#bebebe;stroke-width:.112192;stroke-linecap:round;fill-opacity:1" id="path836-1-5" cx="69.131" cy="282.364" rx="10.19" ry="9.818"/></g></svg>