<svg xmlns="http://www.w3.org/2000/svg" xmlns:svg="http://www.w3.org/2000/svg" id="svg8" width="512" height="512" version="1.1" viewBox="0 0 135.467 135.467"><metadata id="metadata5"/><g id="layer1" transform="translate(-53.419224,-73.382207)"><path id="path993" d="M 121.10993,73.382209 84.548849,136.70702 a 45.357227,45.357227 0 0 0 -4.894275,8.477 l -0.223759,0.38758 h 0.05478 a 45.357227,45.357227 0 0 0 -3.690214,17.91983 45.357227,45.357227 0 0 0 45.357439,45.35744 45.357227,45.357227 0 0 0 45.35692,-45.35744 45.357227,45.357227 0 0 0 -9.14311,-27.30944 z M 86.917697,154.71368 a 78.139765,78.139765 0 0 0 42.687833,42.8842 37.3074,37.3074 0 0 1 -5.87251,0.46509 37.3074,37.3074 0 0 1 -37.307283,-37.30729 37.3074,37.3074 0 0 1 0.49196,-6.042 z" style="fill:#bebebe;stroke:none;stroke-width:11.8469;stroke-linecap:round;stroke-miterlimit:4;stroke-dasharray:none;fill-opacity:1"/></g></svg>