<svg xmlns="http://www.w3.org/2000/svg" xmlns:svg="http://www.w3.org/2000/svg" id="svg8" width="512" height="512" version="1.1" viewBox="0 0 135.467 135.467"><defs id="defs2"><rect id="rect1121" width="33.862" height="51.982" x="100.359" y="188.856"/></defs><metadata id="metadata5"/><g id="layer1" transform="translate(-67.064207,-124.82144)"><path style="color:#000;font-style:normal;font-variant:normal;font-weight:400;font-stretch:normal;font-size:medium;line-height:normal;font-family:sans-serif;font-variant-ligatures:normal;font-variant-position:normal;font-variant-caps:normal;font-variant-numeric:normal;font-variant-alternates:normal;font-variant-east-asian:normal;font-feature-settings:normal;font-variation-settings:normal;text-indent:0;text-align:start;text-decoration:none;text-decoration-line:none;text-decoration-style:solid;text-decoration-color:#000;letter-spacing:normal;word-spacing:normal;text-transform:none;writing-mode:lr-tb;direction:ltr;text-orientation:mixed;dominant-baseline:auto;baseline-shift:baseline;text-anchor:start;white-space:normal;shape-padding:0;shape-margin:0;inline-size:0;clip-rule:nonzero;display:inline;overflow:visible;visibility:visible;opacity:1;isolation:auto;mix-blend-mode:normal;color-interpolation:sRGB;color-interpolation-filters:linearRGB;solid-color:#000;solid-opacity:1;vector-effect:none;fill:#bebebe;fill-opacity:1;fill-rule:nonzero;stroke:none;stroke-width:2.50183;stroke-linecap:butt;stroke-linejoin:miter;stroke-miterlimit:4;stroke-dasharray:none;stroke-dashoffset:0;stroke-opacity:1;color-rendering:auto;image-rendering:auto;shape-rendering:auto;text-rendering:auto;enable-background:accumulate;stop-color:#000;stop-opacity:1" id="rect835" d="m 108.21079,124.82144 -28.626158,21.46381 28.626158,21.4638 v -12.86226 h 14.94018 23.29315 14.94017 v 12.86226 l 28.62616,-21.4638 -28.62616,-21.46381 v 12.86226 h -14.94017 -23.29315 -14.94018 z"/><path id="path1422-2" d="m 88.196982,176.75107 a 8.6120894,8.6120894 0 0 0 -8.61235,8.61143 8.6120894,8.6120894 0 0 0 8.61235,8.61235 l 93.198128,0.0101 a 8.6120894,8.6120894 0 0 0 8.61511,-8.61143 8.6120894,8.6120894 0 0 0 -8.61143,-8.61235 z m 0,33.15157 a 8.6120894,8.6120894 0 0 0 -8.61235,8.61143 8.6120894,8.6120894 0 0 0 8.61235,8.61235 l 93.198128,0.0101 a 8.6120894,8.6120894 0 0 0 8.61511,-8.61144 8.6120894,8.6120894 0 0 0 -8.61143,-8.61235 z m 0,33.15158 a 8.6120894,8.6120894 0 0 0 -8.61235,8.61143 8.6120894,8.6120894 0 0 0 8.61235,8.61235 l 93.198128,0.0101 a 8.6120894,8.6120894 0 0 0 8.61511,-8.61144 8.6120894,8.6120894 0 0 0 -8.61143,-8.61234 z" style="color:#000;font-style:normal;font-variant:normal;font-weight:400;font-stretch:normal;font-size:medium;line-height:normal;font-family:sans-serif;font-variant-ligatures:normal;font-variant-position:normal;font-variant-caps:normal;font-variant-numeric:normal;font-variant-alternates:normal;font-variant-east-asian:normal;font-feature-settings:normal;font-variation-settings:normal;text-indent:0;text-align:start;text-decoration:none;text-decoration-line:none;text-decoration-style:solid;text-decoration-color:#000;letter-spacing:normal;word-spacing:normal;text-transform:none;writing-mode:lr-tb;direction:ltr;text-orientation:mixed;dominant-baseline:auto;baseline-shift:baseline;text-anchor:start;white-space:normal;shape-padding:0;shape-margin:0;inline-size:0;clip-rule:nonzero;display:inline;overflow:visible;visibility:visible;opacity:1;isolation:auto;mix-blend-mode:normal;color-interpolation:sRGB;color-interpolation-filters:linearRGB;solid-color:#000;solid-opacity:1;vector-effect:none;fill:#bebebe;fill-opacity:1;fill-rule:nonzero;stroke:none;stroke-width:1.77865;stroke-linecap:round;stroke-linejoin:miter;stroke-miterlimit:4;stroke-dasharray:none;stroke-dashoffset:0;stroke-opacity:1;color-rendering:auto;image-rendering:auto;shape-rendering:auto;text-rendering:auto;enable-background:accumulate;stop-color:#000;stop-opacity:1"/></g></svg>