<svg xmlns="http://www.w3.org/2000/svg" xmlns:svg="http://www.w3.org/2000/svg" id="svg8" width="512" height="512" version="1.1" viewBox="0 0 135.467 135.467"><defs id="defs2"><rect id="rect1121" width="33.862" height="51.982" x="100.359" y="188.856"/></defs><metadata id="metadata5"/><g id="layer1" transform="translate(-148.31061,-171.47046)"><g id="text857" aria-label="0" transform="translate(0,11.867718)" style="font-style:normal;font-weight:400;font-size:75.7524px;line-height:1.25;font-family:sans-serif;fill:#bebebe;fill-opacity:1;stroke:none;stroke-width:1.89381"><path style="font-style:normal;font-variant:normal;font-weight:700;font-stretch:normal;font-size:121.204px;font-family:sans-serif;-inkscape-font-specification:'sans-serif, Bold';font-variant-ligatures:normal;font-variant-caps:normal;font-variant-numeric:normal;font-variant-east-asian:normal;stroke-width:1.89381;fill:#bebebe;fill-opacity:1" id="path28822" d="M 148.31061,259.22573 H 169.616 v 22.9033 h -21.30539 z"/><path style="font-style:normal;font-variant:normal;font-weight:700;font-stretch:normal;font-size:75.7524px;font-family:sans-serif;-inkscape-font-specification:'sans-serif, Bold';font-variant-ligatures:normal;font-variant-caps:normal;font-variant-numeric:normal;font-variant-east-asian:normal;stroke-width:1.89381;fill:#bebebe;fill-opacity:1" id="path28824" d="m 216.82811,254.46165 q 0,-10.35678 -1.96039,-14.57346 -1.9234,-4.25368 -6.50997,-4.25368 -4.58657,0 -6.54696,4.25368 -1.96039,4.21668 -1.96039,14.57346 0,10.46774 1.96039,14.7584 1.96039,4.29066 6.54696,4.29066 4.54958,0 6.50997,-4.29066 1.96039,-4.29066 1.96039,-14.7584 z m 14.24057,0.11096 q 0,13.72273 -5.91816,21.1944 -5.91816,7.43468 -16.79277,7.43468 -10.9116,0 -16.82976,-7.43468 -5.91815,-7.47167 -5.91815,-21.1944 0,-13.75971 5.91815,-21.1944 5.91816,-7.47167 16.82976,-7.47167 10.87461,0 16.79277,7.47167 5.91816,7.43469 5.91816,21.1944 z"/><path style="font-style:normal;font-variant:normal;font-weight:700;font-stretch:normal;font-size:75.7524px;font-family:sans-serif;-inkscape-font-specification:'sans-serif, Bold';font-variant-ligatures:normal;font-variant-caps:normal;font-variant-numeric:normal;font-variant-east-asian:normal;stroke-width:1.89381;fill:#bebebe;fill-opacity:1" id="path28826" d="m 269.53669,254.46165 q 0,-10.35678 -1.96039,-14.57346 -1.9234,-4.25368 -6.50997,-4.25368 -4.58657,0 -6.54696,4.25368 -1.96039,4.21668 -1.96039,14.57346 0,10.46774 1.96039,14.7584 1.96039,4.29066 6.54696,4.29066 4.54958,0 6.50997,-4.29066 1.96039,-4.29066 1.96039,-14.7584 z m 14.24056,0.11096 q 0,13.72273 -5.91815,21.1944 -5.91816,7.43468 -16.79277,7.43468 -10.9116,0 -16.82976,-7.43468 -5.91816,-7.47167 -5.91816,-21.1944 0,-13.75971 5.91816,-21.1944 5.91816,-7.47167 16.82976,-7.47167 10.87461,0 16.79277,7.47167 5.91815,7.43469 5.91815,21.1944 z"/></g><path style="color:#000;font-style:normal;font-variant:normal;font-weight:400;font-stretch:normal;font-size:medium;line-height:normal;font-family:sans-serif;font-variant-ligatures:normal;font-variant-position:normal;font-variant-caps:normal;font-variant-numeric:normal;font-variant-alternates:normal;font-variant-east-asian:normal;font-feature-settings:normal;font-variation-settings:normal;text-indent:0;text-align:start;text-decoration:none;text-decoration-line:none;text-decoration-style:solid;text-decoration-color:#000;letter-spacing:normal;word-spacing:normal;text-transform:none;writing-mode:lr-tb;direction:ltr;text-orientation:mixed;dominant-baseline:auto;baseline-shift:baseline;text-anchor:start;white-space:normal;shape-padding:0;shape-margin:0;inline-size:0;clip-rule:nonzero;display:inline;overflow:visible;visibility:visible;opacity:1;isolation:auto;mix-blend-mode:normal;color-interpolation:sRGB;color-interpolation-filters:linearRGB;solid-color:#000;solid-opacity:1;vector-effect:none;fill:#bebebe;fill-opacity:1;fill-rule:nonzero;stroke:none;stroke-width:3.35542;stroke-linecap:butt;stroke-linejoin:miter;stroke-miterlimit:4;stroke-dasharray:none;stroke-dashoffset:0;stroke-opacity:1;color-rendering:auto;image-rendering:auto;shape-rendering:auto;text-rendering:auto;enable-background:accumulate;stop-color:#000;stop-opacity:1" id="rect835" d="m 236.83093,183.33818 46.94634,23.54206 -46.94634,23.54228 V 216.31499 H 174.129 v -18.86942 h 62.70193 z"/></g></svg>